<?xml version="1.0" encoding="utf-8"?>
<!-- Generator: Adobe Illustrator 23.0.3, SVG Export Plug-In . SVG Version: 6.00 Build 0)  -->
<svg version="1.1" id="레이어_1" xmlns="http://www.w3.org/2000/svg" xmlns:xlink="http://www.w3.org/1999/xlink" x="0px"
	 y="0px" viewBox="0 0 4569.8 2593" style="enable-background:new 0 0 4569.8 2593;" xml:space="preserve">
<style type="text/css">
	.st0{fill:#28C948;}
</style>
<g>
	<path class="st0" d="M1948.3,1265.2c-7-84.6-62.8-154.2-143.6-179.8c-90.5-28.6-170.2,2.7-217.4,64.7c-1.3,1.7-2.1,3.8-3.4,6.1
		c-3.2-3-4.9-4.2-6.3-5.7c-47-58.4-107.2-84-181.9-73c-73.8,10.8-128.4,48.8-161.1,116.5c-15.7,32.6-21.2,67.5-21.4,103.2
		c-0.2,81-0.2,161.8,0,242.8c0,5.1,0.6,10.2,0.9,15.6c45,0,88.2,0,134.7,0c0-7.6,0-13.8,0-19.9c0-76.6,0-153.5,0-230.1
		c0-10.1,0.6-20.1,2.1-30c5.9-39.1,37-66.8,75.9-68.5c41.4-1.7,74.4,21.6,83.8,60.5c2.7,10.6,3.4,22,3.4,33
		c0.4,78.9,0.2,157.6,0.2,236.6c0,6.1,0.4,12.3,0.6,18.4c45.7,0,89.5,0,135.1,0c0-7,0-13.1,0-19.3c0-78.3-0.2-156.7,0.2-234.9
		c0-10.4,0.9-21.2,3.2-31.5c8-36,37.9-60.9,74.6-62.6c38.7-1.7,70.4,19,81.6,55c4,12.9,5.5,26.9,5.5,40.6
		c0.6,77.8,0.2,155.6,0.2,233.3c0,6.3,0,12.3,0,19c46.1,0,90.1,0,135.6,0c0-6.8,0-12.5,0-18.4c0-74,0.2-148.2,0-222.3
		C1950.4,1298,1949.6,1281.5,1948.3,1265.2z"/>
	<path class="st0" d="M2244.8,1070.6c-40.2,0-78,9.5-111.5,25.8v-28.6h-136.6v680.1h136.6V1534c33.4,16.3,71.3,25.6,111.7,25.6
		c137.5-0.2,247.4-108.3,247.6-243.6C2492.7,1179.8,2382.7,1070.8,2244.8,1070.6z M2243.7,1423.6c-61.1-0.2-108.9-48.6-108.5-109.3
		c0.6-60.5,49.3-108.3,110.2-107.9c59.4,0.4,107.9,49.3,107.9,108.9C2353.3,1375.8,2304.6,1424,2243.7,1423.6z"/>
	<path class="st0" d="M2787,1070.6c-137.9-0.2-248.1,108.5-248.1,244.9c0,136.6,109.6,244.3,248.1,244.3
		c106.4,0,196-65.1,231.3-157.1h-142.1c-23,23.3-55,37.6-90.7,37.6c-52.2-0.2-96-30.9-115-75.5h358.9c3.2-15.7,4.9-31.9,4.9-48.6
		C3034.7,1179.8,2924.7,1070.8,2787,1070.6z M2671.1,1265.6c19.3-45,64.1-75.9,116.7-75.5c50.8,0.4,94.5,31.5,113.8,75.5H2671.1z"/>
	<path class="st0" d="M3908.5,1316.1c0.2-136.2-110-245.3-247.8-245.5c-137.9-0.2-248.1,108.5-248.1,244.9
		c0,136.6,109.6,244.3,248.1,244.3c106.4,0,196-65.1,231.3-157.1h-142.1c-23,23.3-55,37.6-90.7,37.6c-52.2-0.2-96-30.9-115-75.5
		h358.9C3906.8,1349.1,3908.5,1332.7,3908.5,1316.1z M3544.9,1265.6c19.3-45,64.1-75.9,116.7-75.5c50.8,0.4,94.5,31.5,113.8,75.5
		H3544.9z"/>
	<path class="st0" d="M3339.8,1071c-30.2,0-55.8,8.5-76.5,25.8c-20.7,17.3-34.9,41.2-42.5,72.1h-2.8V1071h-137v488.7h139.4v-254.8
		c0-23.9,4.4-44.2,12.9-61.1s21.1-29.8,37.2-38.9c16.3-9.1,35.9-13.7,58.8-13.7c10.2,0,19.7,0.8,28.6,2.1c8.9,1.5,16.3,3.4,22,5.9
		v-123.1c-5.1-1.5-11.2-2.8-18.2-3.8C3354.6,1071.5,3347.4,1071,3339.8,1071z"/>
	<path class="st0" d="M747.3,845.2c51.8,0,103,0,156.5,0c87.8,235,175.9,470.3,265,708.9c-53.5,2.7-103.6,0.8-155.7,1.3
		c-2.8-7.2-6.3-14.2-8.7-21.6c-13.5-39.5-26.7-79.1-40.4-118.6c-6.4-18.6-6.6-18.6-26.4-18.8c-77,0-154,0-231.1,0
		c-21.2,0-21.2,0.2-28.1,19.5c-13.5,37.9-26.7,76.1-40,114c-2.8,8.2-6.3,16.1-9.5,24.3c-50.3,0-99.2,0-148.2,0
		C480.9,1538,728.9,879.4,747.3,845.2z M726.6,1278.3c20.5,7.6,168.6,7.6,186.5,1.1c-1.7-22-80.8-248.7-93.3-263.9
		C788.2,1104.5,757.5,1191.4,726.6,1278.3z"/>
	<path class="st0" d="M4003.9,1238.1c-47,0-85.4-38.3-85.4-85.4s38.3-85.4,85.4-85.4c47,0,85.4,38.3,85.4,85.4
		S4051,1238.1,4003.9,1238.1z M4003.9,1073.6c-43.6,0-79.1,35.5-79.1,79.1s35.5,79.1,79.1,79.1c43.6,0,79.1-35.5,79.1-79.1
		S4047.6,1073.6,4003.9,1073.6z"/>
	<g>
		<path class="st0" d="M3977.8,1115.3h26.4c4.9,0,9.1,0.9,12.7,2.7c3.6,1.9,6.3,4.4,8.3,7.6c2.1,3.2,2.8,7.2,2.8,11.6l0,0
			c0,5.3-1.5,9.7-4.4,13.5c-2.8,3.8-6.8,6.3-11.8,7.6l18.2,31.9h-8.2l-17.3-30.7c-0.2,0-0.4,0-0.8,0c-0.4,0-0.6,0-0.8,0h-18.4v30.5
			h-7V1115.3L3977.8,1115.3z M4003.6,1153.3c5.5,0,9.7-1.3,12.7-4.2c3-2.8,4.6-6.6,4.6-11.6l0,0c0-4.9-1.5-8.7-4.7-11.6
			c-3-2.8-7.4-4.2-12.9-4.2h-18.4v31.5H4003.6L4003.6,1153.3z"/>
	</g>
</g>
</svg>
