<?xml version="1.0" encoding="utf-8"?>
<!-- Generator: Adobe Illustrator 23.0.3, SVG Export Plug-In . SVG Version: 6.00 Build 0)  -->
<svg version="1.1" id="레이어_1" xmlns="http://www.w3.org/2000/svg" xmlns:xlink="http://www.w3.org/1999/xlink" x="0px"
	 y="0px" viewBox="0 0 1920 1080" style="enable-background:new 0 0 1920 1080;" xml:space="preserve">
<style type="text/css">
	.st0{fill:#28C948;}
</style>
<g>
	<path class="st0" d="M782.6,523.5c-3.7-44.6-33.1-81.3-75.7-94.8c-47.7-15.1-89.7,1.4-114.6,34.1c-0.7,0.9-1.1,2-1.8,3.2
		c-1.7-1.6-2.6-2.2-3.3-3c-24.8-30.8-56.5-44.3-95.9-38.5c-38.9,5.7-67.7,25.7-84.9,61.4c-8.3,17.2-11.2,35.6-11.3,54.4
		c-0.1,42.7-0.1,85.3,0,128c0,2.7,0.3,5.4,0.5,8.2c23.7,0,46.5,0,71,0c0-4,0-7.3,0-10.5c0-40.4,0-80.9,0-121.3
		c0-5.3,0.3-10.6,1.1-15.8c3.1-20.6,19.5-35.2,40-36.1c21.8-0.9,39.2,11.4,44.2,31.9c1.4,5.6,1.8,11.6,1.8,17.4
		c0.2,41.6,0.1,83.1,0.1,124.7c0,3.2,0.2,6.5,0.3,9.7c24.1,0,47.2,0,71.2,0c0-3.7,0-6.9,0-10.2c0-41.3-0.1-82.6,0.1-123.8
		c0-5.5,0.5-11.2,1.7-16.6c4.2-19,20-32.1,39.3-33c20.4-0.9,37.1,10,43,29c2.1,6.8,2.9,14.2,2.9,21.4c0.3,41,0.1,82,0.1,123
		c0,3.3,0,6.5,0,10c24.3,0,47.5,0,71.5,0c0-3.6,0-6.6,0-9.7c0-39,0.1-78.1,0-117.2C783.7,540.8,783.3,532.1,782.6,523.5z"/>
	<path class="st0" d="M938.9,420.9c-21.2,0-41.1,5-58.8,13.6v-15.1h-72v358.5h72V665.2c17.6,8.6,37.6,13.5,58.9,13.5
		c72.5-0.1,130.4-57.1,130.5-128.4C1069.6,478.5,1011.6,421,938.9,420.9z M938.3,607c-32.2-0.1-57.4-25.6-57.2-57.6
		c0.3-31.9,26-57.1,58.1-56.9c31.3,0.2,56.9,26,56.9,57.4C996.1,581.8,970.4,607.2,938.3,607z"/>
	<path class="st0" d="M1224.7,420.9c-72.7-0.1-130.8,57.2-130.8,129.1c0,72,57.8,128.8,130.8,128.8c56.1,0,103.3-34.3,121.9-82.8
		h-74.9c-12.1,12.3-29,19.8-47.8,19.8c-27.5-0.1-50.6-16.3-60.6-39.8h189.2c1.7-8.3,2.6-16.8,2.6-25.6
		C1355.3,478.5,1297.3,421,1224.7,420.9z M1163.6,523.7c10.2-23.7,33.8-40,61.5-39.8c26.8,0.2,49.8,16.6,60,39.8H1163.6z"/>
	<path class="st0" d="M1815.9,550.3c0.1-71.8-58-129.3-130.6-129.4c-72.7-0.1-130.8,57.2-130.8,129.1c0,72,57.8,128.8,130.8,128.8
		c56.1,0,103.3-34.3,121.9-82.8h-74.9c-12.1,12.3-29,19.8-47.8,19.8c-27.5-0.1-50.6-16.3-60.6-39.8h189.2
		C1815,567.7,1815.9,559.1,1815.9,550.3z M1624.2,523.7c10.2-23.7,33.8-40,61.5-39.8c26.8,0.2,49.8,16.6,60,39.8H1624.2z"/>
	<path class="st0" d="M1516.1,421.1c-15.9,0-29.4,4.5-40.3,13.6c-10.9,9.1-18.4,21.7-22.4,38h-1.5v-51.6h-72.2l0,257.6h73.5l0-134.3
		c0-12.6,2.3-23.3,6.8-32.2c4.5-8.9,11.1-15.7,19.6-20.5c8.6-4.8,18.9-7.2,31-7.2c5.4,0,10.4,0.4,15.1,1.1c4.7,0.8,8.6,1.8,11.6,3.1
		v-64.9c-2.7-0.8-5.9-1.5-9.6-2C1523.9,421.4,1520.1,421.1,1516.1,421.1z"/>
	<path class="st0" d="M149.5,302.1c27.3,0,54.3,0,82.5,0C278.3,426,324.7,550,371.7,675.8c-28.2,1.4-54.6,0.4-82.1,0.7
		c-1.5-3.8-3.3-7.5-4.6-11.4c-7.1-20.8-14.1-41.7-21.3-62.5c-3.4-9.8-3.5-9.8-13.9-9.9c-40.6,0-81.2,0-121.8,0
		c-11.2,0-11.2,0.1-14.8,10.3c-7.1,20-14.1,40.1-21.1,60.1c-1.5,4.3-3.3,8.5-5,12.8c-26.5,0-52.3,0-78.1,0
		C9.1,667.3,139.8,320.1,149.5,302.1z M138.6,530.4c10.8,4,88.9,4,98.3,0.6c-0.9-11.6-42.6-131.1-49.2-139.1
		C171.1,438.8,154.9,484.6,138.6,530.4z"/>
	<path class="st0" d="M1866.2,509.2c-24.8,0-45-20.2-45-45s20.2-45,45-45c24.8,0,45,20.2,45,45C1911.2,489,1891,509.2,1866.2,509.2z
		 M1866.2,422.5c-23,0-41.7,18.7-41.7,41.7c0,23,18.7,41.7,41.7,41.7s41.7-18.7,41.7-41.7S1889.2,422.5,1866.2,422.5z"/>
	<g>
		<path class="st0" d="M1852.4,444.5h13.9c2.6,0,4.8,0.5,6.7,1.4c1.9,1,3.3,2.3,4.4,4s1.5,3.8,1.5,6.1v0c0,2.8-0.8,5.1-2.3,7.1
			c-1.5,2-3.6,3.3-6.2,4l9.6,16.8h-4.3l-9.1-16.2c-0.1,0-0.2,0-0.4,0s-0.3,0-0.4,0h-9.7v16.1h-3.7L1852.4,444.5L1852.4,444.5z
			 M1866,464.5c2.9,0,5.1-0.7,6.7-2.2s2.4-3.5,2.4-6.1v0c0-2.6-0.8-4.6-2.5-6.1c-1.6-1.5-3.9-2.2-6.8-2.2h-9.7v16.6H1866z"/>
	</g>
</g>
</svg>
